# This file uses centimeters as units for non-parametric coordinates.

g default
v 0.809017 -0.000200 -0.587785
v 0.309017 -0.000200 -0.951057
v -0.309017 -0.000200 -0.951057
v -0.809017 -0.000200 -0.587785
v -1.000000 -0.000200 0.000000
v -0.809017 -0.000200 0.587785
v -0.309017 -0.000200 0.951057
v 0.309017 -0.000200 0.951057
v 0.809017 -0.000200 0.587785
v 1.000000 -0.000200 0.000000
v 0.791281 1.088050 -0.574899
v 0.302242 1.088050 -0.930207
v -0.302243 1.088050 -0.930207
v -0.791281 1.088050 -0.574899
v -0.978077 1.088050 0.000000
v -0.791281 1.088050 0.574899
v -0.302242 1.088050 0.930207
v 0.302242 1.088050 0.930207
v 0.791281 1.088050 0.574899
v 0.978077 1.088050 -0.000000
v 0.000000 -0.000200 0.000000
v -0.000000 1.088050 -0.000000
vt 0.626409 0.064409
vt 0.548284 0.007647
vt 0.451716 0.007647
vt 0.373591 0.064409
vt 0.343750 0.156250
vt 0.373591 0.248091
vt 0.451716 0.304853
vt 0.548284 0.304853
vt 0.626409 0.248091
vt 0.656250 0.156250
vt 0.375000 0.312500
vt 0.400000 0.312500
vt 0.425000 0.312500
vt 0.450000 0.312500
vt 0.475000 0.312500
vt 0.500000 0.312500
vt 0.525000 0.312500
vt 0.550000 0.312500
vt 0.575000 0.312500
vt 0.600000 0.312500
vt 0.625000 0.312500
vt 0.376790 0.514393
vt 0.401306 0.517491
vt 0.426272 0.516967
vt 0.451384 0.517025
vt 0.476406 0.517030
vt 0.501408 0.517030
vt 0.526407 0.517030
vt 0.551395 0.517031
vt 0.576237 0.517066
vt 0.600258 0.517269
vt 0.623425 0.514214
vt 0.623608 0.753526
vt 0.547214 0.698023
vt 0.452786 0.698023
vt 0.376392 0.753526
vt 0.347212 0.843332
vt 0.376392 0.933139
vt 0.452786 0.988642
vt 0.547214 0.988642
vt 0.623608 0.933139
vt 0.652788 0.843333
vt 0.500000 0.150000
vt 0.500000 0.843262
vn 0.808174 0.020141 -0.588600
vn 0.307856 0.020141 -0.951220
vn 0.808152 0.020141 -0.588629
vn 0.307821 0.020141 -0.951231
vn -0.310052 0.020141 -0.950506
vn -0.310087 0.020141 -0.950495
vn -0.809531 0.020141 -0.586731
vn -0.809553 0.020141 -0.586702
vn -0.999797 0.020141 0.001155
vn -0.999796 0.020141 0.001191
vn -0.808174 0.020141 0.588600
vn -0.808152 0.020141 0.588629
vn -0.307856 0.020141 0.951220
vn -0.307821 0.020141 0.951231
vn 0.310052 0.020141 0.950506
vn 0.310087 0.020141 0.950495
vn 0.809531 0.020141 0.586732
vn 0.809553 0.020141 0.586702
vn 0.999797 0.020141 -0.001154
vn 0.999796 0.020141 -0.001191
vn 0.000000 -1.000000 0.000000
vn 0.000000 -1.000000 0.000000
vn 0.000000 -1.000000 0.000000
vn 0.000000 -1.000000 0.000000
vn 0.000000 -1.000000 0.000000
vn 0.000000 -1.000000 0.000000
vn 0.000000 -1.000000 -0.000000
vn 0.000000 -1.000000 -0.000000
vn 0.000000 -1.000000 0.000000
vn 0.000000 -1.000000 0.000000
vn 0.000000 -1.000000 0.000000
vn 0.000000 1.000000 0.000000
vn 0.000000 1.000000 0.000000
vn 0.000000 1.000000 0.000000
vn 0.000000 1.000000 -0.000000
vn 0.000000 1.000000 0.000000
vn 0.000000 1.000000 0.000000
vn 0.000000 1.000000 -0.000000
vn 0.000000 1.000000 0.000000
vn 0.000000 1.000000 0.000000
vn 0.000000 1.000000 -0.000000
vn 0.000000 1.000000 0.000000
s 1
g pCylinder1
f 1/11/1 2/12/2 11/22/3
f 11/22/3 2/12/2 12/23/4
f 2/12/2 3/13/5 12/23/4
f 12/23/4 3/13/5 13/24/6
f 3/13/5 4/14/7 13/24/6
f 13/24/6 4/14/7 14/25/8
f 4/14/7 5/15/9 14/25/8
f 14/25/8 5/15/9 15/26/10
f 5/15/9 6/16/11 15/26/10
f 15/26/10 6/16/11 16/27/12
f 6/16/11 7/17/13 16/27/12
f 16/27/12 7/17/13 17/28/14
f 7/17/13 8/18/15 17/28/14
f 17/28/14 8/18/15 18/29/16
f 8/18/15 9/19/17 18/29/16
f 18/29/16 9/19/17 19/30/18
f 9/19/17 10/20/19 19/30/18
f 19/30/18 10/20/19 20/31/20
f 10/20/19 1/21/1 20/31/20
f 20/31/20 1/21/1 11/32/3
s 2
f 2/2/21 1/1/22 21/43/23
f 3/3/24 2/2/21 21/43/23
f 4/4/25 3/3/24 21/43/23
f 5/5/26 4/4/25 21/43/23
f 6/6/27 5/5/26 21/43/23
f 7/7/28 6/6/27 21/43/23
f 8/8/29 7/7/28 21/43/23
f 9/9/30 8/8/29 21/43/23
f 10/10/31 9/9/30 21/43/23
f 1/1/22 10/10/31 21/43/23
s 3
f 11/41/32 12/40/33 22/44/34
f 12/40/33 13/39/35 22/44/34
f 13/39/35 14/38/36 22/44/34
f 14/38/36 15/37/37 22/44/34
f 15/37/37 16/36/38 22/44/34
f 16/36/38 17/35/39 22/44/34
f 17/35/39 18/34/40 22/44/34
f 18/34/40 19/33/41 22/44/34
f 19/33/41 20/42/42 22/44/34
f 20/42/42 11/41/32 22/44/34
